#!OML:ASF I:\Random Stuff\random\construction\7_22_03\Session 2\subj1.ASF
:FULLY-SPECIFIED
:DEGREES
836
root 7.03348 17.6263 -12.0949 8.13911 -19.9803 -2.12157
lowerback 5.38924 -2.49002 2.67604
upperback -0.924025 -3.00845 3.73277
thorax -3.916 -1.51835 2.62508
lowerneck -19.3463 -8.76878 -9.0348
upperneck 34.8376 -14.593 10.4973
head 17.7186 -5.86592 3.14323
rclavicle 2.5842e-015 2.38542e-015
rhumerus -46.1623 8.26611 -64.054
rradius 100.58
rwrist 8.93485
rhand -29.8216 39.5219
rfingers 7.12502
rthumb -3.14519 9.56536
lclavicle 2.5842e-015 2.38542e-015
lhumerus -36.8613 -17.9074 98.8303
lradius 41.3124
lwrist 19.2011
lhand -18.0421 55.3389
lfingers 7.12502
lthumb 8.22966 -274.841
rfemur -13.169 11.9207 23.3026
rtibia 13.5123
rfoot -7.85497 -38.3974
rtoes 13.3586
lfemur -12.944 -8.1075 -12.8574
ltibia 22.4742
lfoot -17.0122 16.293
ltoes -25.211
837
root 7.08253 17.627 -12.1074 8.25056 -20.0293 -2.09626
lowerback 5.31608 -2.37431 2.49406
upperback -0.984143 -2.87203 3.59063
thorax -3.93822 -1.44773 2.56553
lowerneck -19.4465 -8.82937 -8.99305
upperneck 34.9427 -14.6793 10.4183
head 17.8002 -5.89842 3.07932
rclavicle -2.38542e-014 1.59028e-015
rhumerus -44.8048 8.80432 -64.3106
rradius 98.7883
rwrist 8.98778
rhand -29.6039 39.3508
rfingers 7.12502
rthumb -2.9349 9.39126
lclavicle -2.38542e-014 1.59028e-015
lhumerus -36.7952 -17.9277 98.4819
lradius 40.7271
lwrist 19.0209
lhand -17.7639 55.7319
lfingers 7.12502
lthumb 8.49817 -274.459
rfemur -13.3702 12.1534 23.0416
rtibia 13.4359
rfoot -7.79692 -38.637
rtoes 13.143
lfemur -13.2109 -7.91413 -13.0252
ltibia 22.5477
lfoot -16.9223 16.2129
ltoes -25.3849
838
root 7.13035 17.6273 -12.1186 8.33354 -20.1216 -2.18511
lowerback 5.27396 -2.27222 2.4174
upperback -0.984373 -2.74585 3.50305
thorax -3.91812 -1.38409 2.50437
lowerneck -19.3624 -8.88592 -9.02402
upperneck 34.7664 -14.7266 10.4265
head 17.6932 -5.92699 3.07348
rclavicle -3.8763e-015 -2.3059e-014
rhumerus -43.5678 9.59548 -64.7571
rradius 97.1334
rwrist 8.63611
rhand -30.0024 38.8251
rfingers 7.12502
rthumb -3.31974 8.87117
lclavicle -3.8763e-015 -2.3059e-014
lhumerus -36.7177 -17.9631 98.1345
lradius 40.3632
lwrist 18.9755
lhand -17.5517 56.2218
lfingers 7.12502
lthumb 8.70293 -273.978
rfemur -13.4653 12.4581 22.9088
rtibia 13.3018
rfoot -7.75542 -38.866
rtoes 13.1938
lfemur -13.4043 -7.6633 -13.0923
ltibia 22.6568
lfoot -16.8931 16.1544
ltoes -25.5033
839
root 7.17816 17.6272 -12.1304 8.34636 -20.1953 -2.32651
lowerback 5.34112 -2.18065 2.35363
upperback -0.948004 -2.62604 3.5121
thorax -3.91769 -1.323 2.54101
lowerneck -19.4962 -8.96377 -9.50171
upperneck 34.8547 -14.6919 10.4934
head 17.8313 -5.95886 3.19166
rclavicle -6.74874e-014 1.66979e-014
rhumerus -42.3878 10.5218 -65.1436
rradius 95.7513
rwrist 7.76705
rhand -30.4928 38.0162
rfingers 7.12502
rthumb -3.79331 8.07023
lclavicle -6.74874e-014 1.66979e-014
lhumerus -36.586 -17.8886 97.8786
lradius 40.1511
lwrist 19.0137
lhand -16.7114 56.4883
lfingers 7.12502
lthumb 9.51384 -273.746
rfemur -13.421 12.5947 22.8744
rtibia 13.082
rfoot -7.57665 -38.9336
rtoes 13.3114
lfemur -13.5195 -7.65787 -13.1036
ltibia 22.8036
lfoot -16.9611 16.2792
ltoes -25.3921
840
root 7.22379 17.6282 -12.1438 8.33414 -20.2622 -2.48464
lowerback 5.49323 -2.01418 2.33369
upperback -0.913859 -2.39976 3.5025
thorax -3.97321 -1.21002 2.52827
lowerneck -19.6321 -9.08041 -9.45686
upperneck 34.8204 -14.7438 10.2145
head 17.8106 -6.0016 3.03643
rclavicle -2.23633e-014 4.92986e-014
rhumerus -41.4722 11.058 -65.4682
rradius 94.6192
rwrist 6.98167
rhand -30.7361 36.9923
rfingers 7.12502
rthumb -4.02827 7.0506
lclavicle -2.23633e-014 4.92986e-014
lhumerus -36.3231 -17.907 97.644
lradius 39.8247
lwrist 18.9159
lhand -15.7347 56.6611
lfingers 7.12502
lthumb 10.4561 -273.619
rfemur -13.3573 12.6553 22.8793
rtibia 12.8798
rfoot -7.34571 -38.9365
rtoes 13.3289
lfemur -13.5911 -7.67747 -13.0723
ltibia 22.9455
lfoot -17.1878 16.2019
ltoes -24.1842
841
root 7.26757 17.6291 -12.1583 8.2841 -20.3118 -2.53479
lowerback 5.63907 -1.81985 2.30786
upperback -0.872519 -2.14045 3.39812
thorax -4.0218 -1.08131 2.41595
lowerneck -19.5588 -9.23063 -9.49669
upperneck 34.5372 -14.8968 10.1923
head 17.661 -6.07653 2.98936
rclavicle -3.35946e-014 3.97569e-015
rhumerus -40.7137 11.1389 -65.8294
rradius 93.5881
rwrist 6.60614
rhand -31.0358 35.8216
rfingers 7.12502
rthumb -4.31772 5.88565
lclavicle -3.35946e-014 3.97569e-015
lhumerus -36.0384 -18.1195 97.3384
lradius 39.5437
lwrist 19.0348
lhand -16.0232 57.3303
lfingers 7.12502
lthumb 10.1778 -272.936
rfemur -13.3273 12.9096 22.755
rtibia 12.7489
rfoot -7.33913 -39.1912
rtoes 13.5911
lfemur -13.6626 -7.40735 -13.1515
ltibia 23.0475
lfoot -17.3424 15.8173
ltoes -22.98
